<svg width="128" height="33" viewBox="0 0 128 33" fill="none" xmlns="http://www.w3.org/2000/svg">
<path d="M2.948 32.264C2.53733 32.264 2.14133 32.2347 1.76 32.176C1.37867 32.1467 0.953333 32.0733 0.484 31.956L0.748 29.052C1.24667 29.1693 1.73067 29.228 2.2 29.228C3.52 29.228 4.576 28.7147 5.368 27.688C6.18933 26.632 6.80533 25.0187 7.216 22.848C7.62667 20.648 7.89067 17.832 8.008 14.4L8.448 1.2H29.348V32H26.136V3.136L26.972 4.016H10.516L11.308 3.092L10.912 14.312C10.7947 17.392 10.5747 20.0613 10.252 22.32C9.92933 24.5493 9.46 26.412 8.844 27.908C8.228 29.3747 7.436 30.4747 6.468 31.208C5.5 31.912 4.32667 32.264 2.948 32.264ZM53.2469 32.264C50.9295 32.264 48.7735 31.8827 46.7789 31.12C44.8135 30.328 43.0975 29.228 41.6309 27.82C40.1935 26.3827 39.0642 24.7253 38.2429 22.848C37.4509 20.9413 37.0549 18.8587 37.0549 16.6C37.0549 14.3413 37.4509 12.2733 38.2429 10.396C39.0642 8.48933 40.1935 6.832 41.6309 5.424C43.0975 3.98666 44.8135 2.88666 46.7789 2.124C48.7442 1.332 50.9002 0.935999 53.2469 0.935999C55.5642 0.935999 57.7055 1.332 59.6709 2.124C61.6362 2.88666 63.3375 3.972 64.7749 5.38C66.2415 6.788 67.3709 8.44533 68.1629 10.352C68.9842 12.2587 69.3949 14.3413 69.3949 16.6C69.3949 18.8587 68.9842 20.9413 68.1629 22.848C67.3709 24.7547 66.2415 26.412 64.7749 27.82C63.3375 29.228 61.6362 30.328 59.6709 31.12C57.7055 31.8827 55.5642 32.264 53.2469 32.264ZM53.2469 29.36C55.0949 29.36 56.7962 29.052 58.3509 28.436C59.9349 27.7907 61.2989 26.896 62.4429 25.752C63.6162 24.5787 64.5255 23.2293 65.1709 21.704C65.8162 20.1493 66.1389 18.448 66.1389 16.6C66.1389 14.752 65.8162 13.0653 65.1709 11.54C64.5255 9.98533 63.6162 8.636 62.4429 7.492C61.2989 6.31867 59.9349 5.424 58.3509 4.808C56.7962 4.16266 55.0949 3.84 53.2469 3.84C51.3989 3.84 49.6829 4.16266 48.0989 4.808C46.5149 5.424 45.1362 6.31867 43.9629 7.492C42.8189 8.636 41.9095 9.98533 41.2349 11.54C40.5895 13.0653 40.2669 14.752 40.2669 16.6C40.2669 18.4187 40.5895 20.1053 41.2349 21.66C41.9095 23.2147 42.8189 24.5787 43.9629 25.752C45.1362 26.896 46.5149 27.7907 48.0989 28.436C49.6829 29.052 51.3989 29.36 53.2469 29.36ZM77.1647 32V1.2H96.7447V4.016H79.4967L80.3327 3.18L80.3767 32H77.1647ZM111.641 32.264C109.324 32.264 107.168 31.8827 105.173 31.12C103.208 30.328 101.492 29.228 100.025 27.82C98.5881 26.3827 97.4587 24.7253 96.6374 22.848C95.8454 20.9413 95.4494 18.8587 95.4494 16.6C95.4494 14.3413 95.8454 12.2733 96.6374 10.396C97.4587 8.48933 98.5881 6.832 100.025 5.424C101.492 3.98666 103.208 2.88666 105.173 2.124C107.139 1.332 109.295 0.935999 111.641 0.935999C113.959 0.935999 116.1 1.332 118.065 2.124C120.031 2.88666 121.732 3.972 123.169 5.38C124.636 6.788 125.765 8.44533 126.557 10.352C127.379 12.2587 127.789 14.3413 127.789 16.6C127.789 18.8587 127.379 20.9413 126.557 22.848C125.765 24.7547 124.636 26.412 123.169 27.82C121.732 29.228 120.031 30.328 118.065 31.12C116.1 31.8827 113.959 32.264 111.641 32.264ZM111.641 29.36C113.489 29.36 115.191 29.052 116.745 28.436C118.329 27.7907 119.693 26.896 120.837 25.752C122.011 24.5787 122.92 23.2293 123.565 21.704C124.211 20.1493 124.533 18.448 124.533 16.6C124.533 14.752 124.211 13.0653 123.565 11.54C122.92 9.98533 122.011 8.636 120.837 7.492C119.693 6.31867 118.329 5.424 116.745 4.808C115.191 4.16266 113.489 3.84 111.641 3.84C109.793 3.84 108.077 4.16266 106.493 4.808C104.909 5.424 103.531 6.31867 102.357 7.492C101.213 8.636 100.304 9.98533 99.6294 11.54C98.9841 13.0653 98.6614 14.752 98.6614 16.6C98.6614 18.4187 98.9841 20.1053 99.6294 21.66C100.304 23.2147 101.213 24.5787 102.357 25.752C103.531 26.896 104.909 27.7907 106.493 28.436C108.077 29.052 109.793 29.36 111.641 29.36Z" fill="white"/>
</svg>
