<svg width="78" height="22" viewBox="0 0 78 22" fill="none" xmlns="http://www.w3.org/2000/svg">
<path d="M0.971413 21V18.3352L1.568 18.3153C2.37672 18.2955 3.01308 18.0204 3.4771 17.4901C3.94774 16.9598 4.28912 16.1046 4.50124 14.9247C4.71999 13.7448 4.86583 12.1705 4.93874 10.2017L5.28675 0.636363H18.1632V21H15.1305V3.24148H8.18022L7.86204 11.017C7.77586 13.1979 7.55711 15.0308 7.20579 16.5156C6.85446 17.9938 6.25787 19.1108 5.41602 19.8665C4.58079 20.6222 3.39092 21 1.84641 21H0.971413ZM40.3265 10.8182C40.3265 12.9924 39.9288 14.8617 39.1333 16.4261C38.3379 17.9839 37.2475 19.1837 35.862 20.0256C34.4833 20.8608 32.9155 21.2784 31.1589 21.2784C29.3957 21.2784 27.8213 20.8608 26.4359 20.0256C25.0571 19.1837 23.97 17.9806 23.1745 16.4162C22.3791 14.8518 21.9814 12.9858 21.9814 10.8182C21.9814 8.64394 22.3791 6.77793 23.1745 5.22017C23.97 3.65578 25.0571 2.45597 26.4359 1.62074C27.8213 0.778882 29.3957 0.357954 31.1589 0.357954C32.9155 0.357954 34.4833 0.778882 35.862 1.62074C37.2475 2.45597 38.3379 3.65578 39.1333 5.22017C39.9288 6.77793 40.3265 8.64394 40.3265 10.8182ZM37.2839 10.8182C37.2839 9.16098 37.0154 7.76562 36.4785 6.6321C35.9482 5.49195 35.219 4.63021 34.291 4.04688C33.3696 3.45691 32.3256 3.16193 31.1589 3.16193C29.9856 3.16193 28.9383 3.45691 28.0169 4.04688C27.0955 4.63021 26.3663 5.49195 25.8294 6.6321C25.2991 7.76562 25.0339 9.16098 25.0339 10.8182C25.0339 12.4754 25.2991 13.8741 25.8294 15.0142C26.3663 16.1477 27.0955 17.0095 28.0169 17.5994C28.9383 18.1828 29.9856 18.4744 31.1589 18.4744C32.3256 18.4744 33.3696 18.1828 34.291 17.5994C35.219 17.0095 35.9482 16.1477 36.4785 15.0142C37.0154 13.8741 37.2839 12.4754 37.2839 10.8182ZM56.8546 0.636363V3.28125H47.2296V21H44.1571V0.636363H56.8546ZM77.1312 10.8182C77.1312 12.9924 76.7335 14.8617 75.938 16.4261C75.1426 17.9839 74.0521 19.1837 72.6667 20.0256C71.2879 20.8608 69.7202 21.2784 67.9636 21.2784C66.2003 21.2784 64.626 20.8608 63.2406 20.0256C61.8618 19.1837 60.7747 17.9806 59.9792 16.4162C59.1838 14.8518 58.786 12.9858 58.786 10.8182C58.786 8.64394 59.1838 6.77793 59.9792 5.22017C60.7747 3.65578 61.8618 2.45597 63.2406 1.62074C64.626 0.778882 66.2003 0.357954 67.9636 0.357954C69.7202 0.357954 71.2879 0.778882 72.6667 1.62074C74.0521 2.45597 75.1426 3.65578 75.938 5.22017C76.7335 6.77793 77.1312 8.64394 77.1312 10.8182ZM74.0886 10.8182C74.0886 9.16098 73.8201 7.76562 73.2832 6.6321C72.7529 5.49195 72.0237 4.63021 71.0957 4.04688C70.1743 3.45691 69.1303 3.16193 67.9636 3.16193C66.7903 3.16193 65.743 3.45691 64.8216 4.04688C63.9002 4.63021 63.171 5.49195 62.6341 6.6321C62.1038 7.76562 61.8386 9.16098 61.8386 10.8182C61.8386 12.4754 62.1038 13.8741 62.6341 15.0142C63.171 16.1477 63.9002 17.0095 64.8216 17.5994C65.743 18.1828 66.7903 18.4744 67.9636 18.4744C69.1303 18.4744 70.1743 18.1828 71.0957 17.5994C72.0237 17.0095 72.7529 16.1477 73.2832 15.0142C73.8201 13.8741 74.0886 12.4754 74.0886 10.8182Z" fill="black"/>
</svg>
